<mxfile host="65bd71144e">
    <diagram id="j40Xv0NenyjYmUQ1P-FZ" name="Page-1">
        <mxGraphModel dx="1809" dy="507" grid="1" gridSize="10" guides="1" tooltips="1" connect="1" arrows="1" fold="1" page="1" pageScale="1" pageWidth="850" pageHeight="1100" math="0" shadow="0">
            <root>
                <mxCell id="0"/>
                <mxCell id="1" parent="0"/>
                <mxCell id="55" value="&lt;b&gt;&lt;font style=&quot;font-size: 16px;&quot;&gt;Name&lt;/font&gt;&lt;/b&gt;" style="rounded=0;whiteSpace=wrap;html=1;fillColor=#0050ef;fontColor=#ffffff;strokeColor=#001DBC;gradientColor=none;" parent="1" vertex="1">
                    <mxGeometry x="-130" y="455" width="120" height="30" as="geometry"/>
                </mxCell>
                <mxCell id="59" value="&lt;div&gt;attribute 1&lt;/div&gt;" style="rounded=0;whiteSpace=wrap;html=1;align=center;" parent="1" vertex="1">
                    <mxGeometry x="-130" y="485" width="120" height="35" as="geometry"/>
                </mxCell>
                <mxCell id="60" value="&lt;div&gt;attribute 2&lt;/div&gt;" style="rounded=0;whiteSpace=wrap;html=1;align=center;" parent="1" vertex="1">
                    <mxGeometry x="-130" y="520" width="120" height="35" as="geometry"/>
                </mxCell>
                <mxCell id="62" value="&lt;b&gt;&lt;font style=&quot;font-size: 16px;&quot;&gt;Entry&lt;/font&gt;&lt;/b&gt;" style="rounded=0;whiteSpace=wrap;html=1;fillColor=#0050ef;fontColor=#ffffff;strokeColor=#001DBC;gradientColor=none;" parent="1" vertex="1">
                    <mxGeometry x="420" y="455" width="120" height="30" as="geometry"/>
                </mxCell>
                <mxCell id="63" value="&lt;div&gt;&lt;u&gt;entry_ID&lt;/u&gt;&lt;/div&gt;" style="rounded=0;whiteSpace=wrap;html=1;align=center;" parent="1" vertex="1">
                    <mxGeometry x="420" y="485" width="120" height="35" as="geometry"/>
                </mxCell>
                <mxCell id="64" value="&lt;div&gt;date_str&lt;/div&gt;" style="rounded=0;whiteSpace=wrap;html=1;align=center;" parent="1" vertex="1">
                    <mxGeometry x="420" y="520" width="120" height="35" as="geometry"/>
                </mxCell>
                <mxCell id="65" value="&lt;b&gt;&lt;font style=&quot;font-size: 16px;&quot;&gt;App_Data&lt;/font&gt;&lt;/b&gt;" style="rounded=0;whiteSpace=wrap;html=1;fillColor=#0050ef;fontColor=#ffffff;strokeColor=#001DBC;gradientColor=none;" parent="1" vertex="1">
                    <mxGeometry x="140" y="455" width="120" height="30" as="geometry"/>
                </mxCell>
                <mxCell id="66" value="date_str" style="rounded=0;whiteSpace=wrap;html=1;align=center;" parent="1" vertex="1">
                    <mxGeometry x="140" y="520" width="120" height="35" as="geometry"/>
                </mxCell>
                <mxCell id="67" value="&lt;div&gt;app_name&lt;/div&gt;" style="rounded=0;whiteSpace=wrap;html=1;align=center;" parent="1" vertex="1">
                    <mxGeometry x="140" y="555" width="120" height="35" as="geometry"/>
                </mxCell>
                <mxCell id="68" value="&lt;div&gt;time_duration&lt;/div&gt;" style="rounded=0;whiteSpace=wrap;html=1;align=center;" parent="1" vertex="1">
                    <mxGeometry x="140" y="590" width="120" height="35" as="geometry"/>
                </mxCell>
                <mxCell id="71" value="&lt;div&gt;&lt;u&gt;app_data_ID&lt;/u&gt;&lt;/div&gt;" style="rounded=0;whiteSpace=wrap;html=1;align=center;" parent="1" vertex="1">
                    <mxGeometry x="140" y="485" width="120" height="35" as="geometry"/>
                </mxCell>
                <mxCell id="72" value="M:1" style="edgeStyle=elbowEdgeStyle;elbow=vertical;endArrow=classic;html=1;curved=0;rounded=0;endSize=8;startSize=8;fontSize=16;exitX=1;exitY=0.5;exitDx=0;exitDy=0;entryX=0;entryY=0.5;entryDx=0;entryDy=0;" parent="1" source="66" target="64" edge="1">
                    <mxGeometry width="50" height="50" relative="1" as="geometry">
                        <mxPoint x="460" y="555" as="sourcePoint"/>
                        <mxPoint x="430" y="500" as="targetPoint"/>
                    </mxGeometry>
                </mxCell>
                <mxCell id="73" value="&lt;span style=&quot;font-size: 16px;&quot;&gt;&lt;b&gt;App_List&lt;/b&gt;&lt;/span&gt;" style="rounded=0;whiteSpace=wrap;html=1;fillColor=#0050ef;fontColor=#ffffff;strokeColor=#001DBC;gradientColor=none;" parent="1" vertex="1">
                    <mxGeometry x="420" y="580" width="120" height="30" as="geometry"/>
                </mxCell>
                <mxCell id="74" value="&lt;div&gt;&lt;u&gt;app_ID&lt;/u&gt;&lt;/div&gt;" style="rounded=0;whiteSpace=wrap;html=1;align=center;" parent="1" vertex="1">
                    <mxGeometry x="420" y="610" width="120" height="35" as="geometry"/>
                </mxCell>
                <mxCell id="75" value="&lt;div&gt;app_name&lt;/div&gt;" style="rounded=0;whiteSpace=wrap;html=1;align=center;" parent="1" vertex="1">
                    <mxGeometry x="420" y="645" width="120" height="35" as="geometry"/>
                </mxCell>
                <mxCell id="77" value="1:1" style="edgeStyle=elbowEdgeStyle;elbow=horizontal;endArrow=classic;html=1;curved=0;rounded=0;endSize=8;startSize=8;fontSize=16;entryX=0;entryY=0.5;entryDx=0;entryDy=0;exitX=1;exitY=0.5;exitDx=0;exitDy=0;" parent="1" source="67" target="75" edge="1">
                    <mxGeometry width="50" height="50" relative="1" as="geometry">
                        <mxPoint x="300" y="560" as="sourcePoint"/>
                        <mxPoint x="410" y="550" as="targetPoint"/>
                    </mxGeometry>
                </mxCell>
            </root>
        </mxGraphModel>
    </diagram>
</mxfile>